<svg xmlns="http://www.w3.org/2000/svg" viewBox="0 0 320 220"><rect width="320" height="220" fill="#e7eefb"/><ellipse cx="150" cy="120" rx="96" ry="64" fill="#ffffff" stroke="#94a3b8" stroke-width="6"/><ellipse cx="150" cy="120" rx="60" ry="38" fill="none" stroke="#94a3b8" stroke-width="4" opacity="0.5"/><g fill="#fbbf24"><path d="M252 32 l5 11 l11 5 l-11 5 l-5 11 l-5 -11 l-11 -5 l11 -5 z"/><path d="M64 42 l5 11 l11 5 l-11 5 l-5 11 l-5 -11 l-11 -5 l11 -5 z"/><path d="M270 152 l5 11 l11 5 l-11 5 l-5 11 l-5 -11 l-11 -5 l11 -5 z"/></g><path d="M104 104 q20 -18 44 -12" stroke="#5b8def" stroke-width="7" fill="none" stroke-linecap="round" opacity="0.6"/></svg>