<svg xmlns="http://www.w3.org/2000/svg" viewBox="0 0 320 220"><rect width="320" height="220" fill="#1e293b"/><circle cx="160" cy="104" r="46" fill="#fde68a"/><path d="M160 58 a46 46 0 0 1 26 84 v14 h-52 v-14 a46 46 0 0 1 26 -84 z" fill="#fbbf24"/><rect x="138" y="156" width="44" height="14" rx="6" fill="#94a3b8"/><rect x="144" y="174" width="32" height="12" rx="6" fill="#64748b"/><line x1="228" y1="104" x2="252" y2="104" stroke="#fbbf24" stroke-width="8" stroke-linecap="round"/><line x1="208.08326112068522" y1="152.08326112068522" x2="225.0538238691624" y2="169.0538238691624" stroke="#fbbf24" stroke-width="8" stroke-linecap="round"/><line x1="160" y1="172" x2="160" y2="196" stroke="#fbbf24" stroke-width="8" stroke-linecap="round"/><line x1="111.91673887931478" y1="152.08326112068522" x2="94.94617613083763" y2="169.0538238691624" stroke="#fbbf24" stroke-width="8" stroke-linecap="round"/><line x1="92" y1="104.00000000000001" x2="68" y2="104.00000000000001" stroke="#fbbf24" stroke-width="8" stroke-linecap="round"/><line x1="111.91673887931475" y1="55.91673887931477" x2="94.94617613083761" y2="38.94617613083763" stroke="#fbbf24" stroke-width="8" stroke-linecap="round"/><line x1="160" y1="36" x2="159.99999999999997" y2="12" stroke="#fbbf24" stroke-width="8" stroke-linecap="round"/><line x1="208.08326112068522" y1="55.91673887931476" x2="225.05382386916236" y2="38.946176130837614" stroke="#fbbf24" stroke-width="8" stroke-linecap="round"/></svg>
