<svg xmlns="http://www.w3.org/2000/svg" viewBox="0 0 320 220"><rect width="320" height="220" fill="#eef2f7"/><ellipse cx="70" cy="176" rx="18" ry="12" fill="#94a3b8"/><ellipse cx="104" cy="168" rx="16" ry="11" fill="#d9b382"/><ellipse cx="136" cy="178" rx="20" ry="12" fill="#94a3b8"/><ellipse cx="172" cy="166" rx="15" ry="10" fill="#8a6a45"/><ellipse cx="206" cy="176" rx="19" ry="12" fill="#d9b382"/><ellipse cx="242" cy="170" rx="16" ry="11" fill="#94a3b8"/><ellipse cx="88" cy="150" rx="14" ry="10" fill="#94a3b8"/><ellipse cx="124" cy="146" rx="15" ry="10" fill="#8a6a45"/><ellipse cx="160" cy="140" rx="16" ry="11" fill="#94a3b8"/><ellipse cx="196" cy="148" rx="14" ry="10" fill="#d9b382"/><ellipse cx="228" cy="152" rx="14" ry="9" fill="#94a3b8"/><ellipse cx="142" cy="120" rx="14" ry="10" fill="#d9b382"/><ellipse cx="178" cy="120" rx="13" ry="9" fill="#94a3b8"/><ellipse cx="110" cy="124" rx="12" ry="8" fill="#94a3b8"/><ellipse cx="212" cy="128" rx="12" ry="8" fill="#8a6a45"/></svg>